<?xml version="1.0" standalone="no"?><!DOCTYPE svg PUBLIC "-//W3C//DTD SVG 1.1//EN" "http://www.w3.org/Graphics/SVG/1.1/DTD/svg11.dtd"><svg t="1611366607655" class="icon" viewBox="0 0 1024 1024" version="1.1" xmlns="http://www.w3.org/2000/svg" p-id="25069" xmlns:xlink="http://www.w3.org/1999/xlink" width="200" height="200"><defs><style type="text/css"></style></defs><path d="M404.1216 456.0384H142.5408c-33.8944 0-61.44-27.5456-61.44-61.44V149.8112c0-33.8944 27.5456-61.44 61.44-61.44h261.5808c33.8944 0 61.44 27.5456 61.44 61.44v244.7872c0 33.8432-27.5456 61.44-61.44 61.44zM142.5408 149.8112v244.7872h261.632l-0.0512-244.7872H142.5408zM892.8256 456.0384h-261.5808c-33.8944 0-61.44-27.5456-61.44-61.44V149.8112c0-33.8944 27.5456-61.44 61.44-61.44h261.5808c33.8944 0 61.44 27.5456 61.44 61.44v244.7872c0 33.8432-27.5456 61.44-61.44 61.44z m-261.5808-306.2272v244.7872h261.632l-0.0512-244.7872h-261.5808zM404.1216 939.1616H142.5408c-33.8944 0-61.44-27.5456-61.44-61.44v-244.7872c0-33.8944 27.5456-61.44 61.44-61.44h261.5808c33.8944 0 61.44 27.5456 61.44 61.44v244.7872c0 33.8432-27.5456 61.44-61.44 61.44z m-261.5808-306.2272v244.7872h261.632l-0.0512-244.7872H142.5408z" fill="#d81e06" p-id="25070"></path><path d="M751.8208 931.328c-108.6464 0-197.0176-88.3712-197.0176-197.0176s88.3712-197.0176 197.0176-197.0176c108.6464 0 197.0176 88.3712 197.0176 197.0176s-88.4224 197.0176-197.0176 197.0176z m0-332.544c-74.752 0-135.5776 60.8256-135.5776 135.5776s60.8256 135.5776 135.5776 135.5776 135.5776-60.8256 135.5776-135.5776-60.8256-135.5776-135.5776-135.5776z" fill="#d81e06" p-id="25071"></path></svg>